# xmcd
#
# Track frame offsets: 
#        150
#        30575
#        52482
#        74115
#        90325
#        109130
#        130230
#        149295
#
# Disc length: 2388 seconds
#
# Revision: 3
# Processed by: cddbd v1.5.2PL0 Copyright (c) Steve Scherf et al.
# Submitted via: ExactAudioCopy v0.95b4
#
DISCID=78095208
DTITLE=Alain Chamfort - Poses
DYEAR=1989
DGENRE=other
TTITLE0=Manureva
TTITLE1=D mod 
TTITLE2=Palais royal
TTITLE3=Toute la ville en parle
TTITLE4=Let me try it again
TTITLE5=Beguine
TTITLE6=G ant
TTITLE7=B b  polaroid
EXTD=
EXTT0=
EXTT1=
EXTT2=
EXTT3=
EXTT4=
EXTT5=
EXTT6=
EXTT7=
PLAYORDER=
